<svg width="16" height="16" viewBox="0 0 16 16" fill="none" xmlns="http://www.w3.org/2000/svg">
<rect width="16" height="16" rx="3" fill="#47494D"/>
<path d="M11.636 4.95238C11.7831 4.95238 11.9241 5.0084 12.0281 5.10811C12.1321 5.20782 12.1905 5.34305 12.1905 5.48406V8.39318C12.1911 8.85973 12.0418 9.31512 11.7628 9.69743C11.4839 10.0797 11.089 10.3704 10.6317 10.5299C10.1744 10.6894 9.67693 10.7099 9.20701 10.5888C8.73709 10.4676 8.31749 10.2106 8.00529 9.85277C7.69177 10.2095 7.27164 10.4654 6.80161 10.586C6.33157 10.7066 5.83428 10.686 5.37684 10.527C4.91941 10.368 4.52386 10.0783 4.2436 9.69695C3.96333 9.31561 3.81184 8.86102 3.80957 8.39452V5.48406C3.80976 5.34299 3.86834 5.20776 3.97244 5.10807C4.07655 5.00838 4.21767 4.95238 4.3648 4.95238C4.51188 4.95238 4.65292 5.0084 4.75692 5.10811C4.86091 5.20782 4.91934 5.34305 4.91934 5.48406V8.37776C4.91432 8.66026 5.01337 8.93542 5.19905 9.15482C5.36325 9.34869 5.58583 9.48926 5.83643 9.55736C6.08703 9.62547 6.35344 9.61779 6.59932 9.53537C6.8452 9.45296 7.05857 9.29981 7.21032 9.09684C7.36207 8.89386 7.44482 8.65094 7.44726 8.40122V5.48406C7.44726 5.34305 7.50568 5.20782 7.60968 5.10811C7.71368 5.0084 7.85472 4.95238 8.00179 4.95238C8.07468 4.95229 8.14686 4.96598 8.21422 4.99266C8.28158 5.01934 8.3428 5.05849 8.39436 5.10787C8.44593 5.15725 8.48684 5.21589 8.51475 5.28044C8.54266 5.34499 8.55703 5.41418 8.55703 5.48406V8.40122C8.5545 8.56028 8.58602 8.71815 8.64964 8.86507C8.71327 9.01199 8.80765 9.14483 8.92695 9.25539C9.05295 9.37326 9.20314 9.46472 9.36798 9.52397C9.53281 9.58323 9.7087 9.60897 9.88446 9.59958C10.0602 9.59018 10.232 9.54585 10.389 9.4694C10.5459 9.39295 10.6846 9.28605 10.7961 9.15549C10.982 8.93617 11.0811 8.66096 11.0759 8.37843V5.48406C11.0759 5.34305 11.1343 5.20782 11.2383 5.10811C11.3423 5.0084 11.4833 4.95238 11.6304 4.95238H11.636Z" fill="#5C8EF2"/>
</svg>
