<svg width="100" height="100" viewBox="0 0 100 100" fill="none" xmlns="http://www.w3.org/2000/svg">
<rect width="100" height="100" rx="16" fill="#2E6FF2"/>
<path d="M74 36V55.8739C73.9826 59.3495 72.5469 62.678 70.0048 65.1359C67.4627 67.5938 64.0198 68.9825 60.4245 69C56.1886 69 52.7219 67.4323 50.0244 64.2968C47.2963 67.4341 43.8133 69.0019 39.5755 69C35.9802 68.9825 32.5373 67.5938 29.9952 65.1359C27.4531 62.678 26.0174 59.3495 26 55.8739V36H32.3538V55.8739C32.3576 57.7243 33.1197 59.4978 34.4732 60.8063C35.8267 62.1147 37.6614 62.8514 39.5755 62.855C40.5216 62.8704 41.4613 62.7013 42.3382 62.3576C43.2151 62.0139 44.0114 61.5028 44.6793 60.8549C45.3631 60.2142 45.9072 59.4475 46.2794 58.6001C46.6515 57.7527 46.8442 56.8417 46.8461 55.9211V36H53.2028V55.9211C53.1883 56.8398 53.3688 57.7515 53.7331 58.6001C54.0974 59.4486 54.6377 60.216 55.3207 60.8549C55.9886 61.5028 56.7849 62.0139 57.6618 62.3576C58.5387 62.7013 59.4784 62.8704 60.4245 62.855C62.3391 62.8528 64.1746 62.1166 65.5285 60.8079C66.8823 59.4991 67.6439 57.7247 67.6462 55.8739V36H74Z" fill="#F3F5FA"/>
</svg>
