<svg width="20" height="20" viewBox="0 0 20 20" fill="none" xmlns="http://www.w3.org/2000/svg">
<path fill-rule="evenodd" clip-rule="evenodd" d="M13.8333 3.75C13.0509 3.75 12.4166 4.38426 12.4166 5.16666C12.4166 5.94907 13.0509 6.58333 13.8333 6.58333C14.6157 6.58333 15.25 5.94907 15.25 5.16666C15.25 4.38426 14.6157 3.75 13.8333 3.75ZM10.9166 5.16666C10.9166 3.55584 12.2225 2.25 13.8333 2.25C15.4441 2.25 16.75 3.55584 16.75 5.16666C16.75 6.77749 15.4441 8.08333 13.8333 8.08333C12.9957 8.08333 12.2406 7.73028 11.7087 7.16488L7.92244 8.97568C8.02667 9.27564 8.0833 9.59787 8.0833 9.93333C8.0833 10.2688 8.02667 10.591 7.92244 10.891L11.7087 12.7018C12.2406 12.1364 12.9957 11.7833 13.8333 11.7833C15.4441 11.7833 16.75 13.0892 16.75 14.7C16.75 16.3108 15.4441 17.6167 13.8333 17.6167C12.2225 17.6167 10.9166 16.3108 10.9166 14.7C10.9166 14.4671 10.9439 14.2406 10.9955 14.0234L7.06805 12.1451C6.55747 12.5844 5.89306 12.85 5.16663 12.85C3.5558 12.85 2.24997 11.5442 2.24997 9.93333C2.24997 8.3225 3.5558 7.01666 5.16663 7.01666C5.89306 7.01666 6.55746 7.28223 7.06805 7.72158L10.9955 5.84323C10.9439 5.6261 10.9166 5.39957 10.9166 5.16666ZM6.29145 9.07197C6.03251 8.73435 5.62499 8.51666 5.16663 8.51666C4.38423 8.51666 3.74997 9.15093 3.74997 9.93333C3.74997 10.7157 4.38423 11.35 5.16663 11.35C5.62499 11.35 6.03251 11.1323 6.29145 10.7947C6.29734 10.7865 6.30338 10.7784 6.30956 10.7705C6.48166 10.536 6.5833 10.2465 6.5833 9.93333C6.5833 9.62012 6.48166 9.33066 6.30956 9.09612C6.30338 9.08821 6.29734 9.08016 6.29145 9.07197ZM13.8333 13.2833C13.0509 13.2833 12.4166 13.9176 12.4166 14.7C12.4166 15.4824 13.0509 16.1167 13.8333 16.1167C14.6157 16.1167 15.25 15.4824 15.25 14.7C15.25 13.9176 14.6157 13.2833 13.8333 13.2833Z" fill="#8D9299"/>
</svg>
