<svg width="30" height="30" viewBox="0 0 30 30" fill="none" xmlns="http://www.w3.org/2000/svg">
<path fill-rule="evenodd" clip-rule="evenodd" d="M16.6553 5.79449C15.6909 5.01089 14.3091 5.01089 13.3447 5.79449L5.09469 12.4976C4.48121 12.9961 4.125 13.7444 4.125 14.5349V23.25C4.125 24.6998 5.30025 25.875 6.75 25.875H10.125V18.75C10.125 16.0576 12.3076 13.875 15 13.875C17.6924 13.875 19.875 16.0576 19.875 18.75V25.875H23.25C24.6997 25.875 25.875 24.6998 25.875 23.25V14.5349C25.875 13.7444 25.5188 12.9961 24.9053 12.4976L16.6553 5.79449ZM17.625 25.875V18.75C17.625 17.3003 16.4497 16.125 15 16.125C13.5503 16.125 12.375 17.3003 12.375 18.75V25.875H17.625ZM11.9259 4.04823C13.717 2.59297 16.2831 2.59297 18.0741 4.04823L26.3241 10.7514C27.4635 11.6771 28.125 13.0669 28.125 14.5349V23.25C28.125 25.9424 25.9424 28.125 23.25 28.125H6.75C4.05761 28.125 1.875 25.9424 1.875 23.25V14.5349C1.875 13.0669 2.53652 11.6771 3.67586 10.7514L11.9259 4.04823Z" fill="#8D9299"/>
</svg>
