<svg width="1200" height="630" viewBox="0 0 1200 630" fill="none" xmlns="http://www.w3.org/2000/svg">
<rect width="1200" height="630" fill="url(#paint0_linear_184_1730)"/>
<path d="M499.643 261.278V292.788C499.616 298.299 497.369 303.576 493.392 307.474C489.414 311.371 484.027 313.572 478.401 313.6C471.773 313.6 466.349 311.114 462.128 306.143C457.859 311.117 452.409 313.603 445.778 313.6C440.152 313.572 434.765 311.371 430.788 307.474C426.81 303.576 424.563 298.299 424.536 292.788V261.278H434.478V292.788C434.484 295.722 435.677 298.534 437.794 300.609C439.912 302.683 442.783 303.851 445.778 303.857C447.259 303.882 448.729 303.613 450.101 303.068C451.473 302.524 452.719 301.713 453.764 300.686C454.834 299.67 455.685 298.454 456.268 297.111C456.85 295.767 457.152 294.323 457.155 292.863V261.278H467.101V292.863C467.078 294.32 467.361 295.765 467.931 297.111C468.501 298.456 469.346 299.673 470.415 300.686C471.46 301.713 472.706 302.524 474.078 303.068C475.45 303.613 476.921 303.882 478.401 303.857C481.397 303.854 484.269 302.686 486.387 300.611C488.506 298.536 489.697 295.723 489.701 292.788V261.278H499.643Z" fill="white"/>
<path d="M537.055 292.322C538.121 295.613 540.2 298.501 543.008 300.589C545.89 302.726 549.413 303.867 553.027 303.835C556.102 303.81 559.135 303.131 561.916 301.844C565.034 300.464 567.32 298.717 568.774 296.603L576.984 302.065C574.61 305.509 571.175 308.288 566.678 310.402C562.439 312.465 557.774 313.551 553.04 313.578C549.52 313.632 546.026 312.978 542.774 311.658C539.522 310.338 536.581 308.378 534.132 305.901C528.907 300.789 526.296 294.64 526.299 287.455C526.305 280.513 529.123 273.858 534.134 268.95C539.145 264.042 545.94 261.283 553.027 261.278C560.362 261.278 566.641 263.836 571.863 268.951C574.392 271.347 576.393 274.225 577.744 277.407C579.095 280.589 579.767 284.009 579.718 287.455C579.72 289.064 579.57 290.669 579.269 292.251L537.055 292.322ZM553.027 270.999C549.412 270.965 545.889 272.107 543.008 274.245C540.186 276.35 538.105 279.265 537.055 282.583H568.927C567.878 279.265 565.798 276.35 562.978 274.245C560.119 272.113 556.619 270.972 553.027 270.999Z" fill="white"/>
<path d="M605.659 313.578V287.455C605.604 284.006 606.27 280.584 607.617 277.397C608.964 274.211 610.964 271.329 613.492 268.929C618.717 263.829 624.996 261.278 632.329 261.278C639.422 261.278 646.225 264.038 651.241 268.952C656.256 273.865 659.074 280.528 659.074 287.477V313.6H649.128V287.455C649.128 283.1 647.362 278.923 644.218 275.844C641.074 272.764 636.81 271.034 632.364 271.034C627.919 271.034 623.655 272.764 620.511 275.844C617.367 278.923 615.601 283.1 615.601 287.455V313.578H605.659Z" fill="white"/>
<path d="M685.033 243.4H694.975V252.843H685.033V243.4ZM685.033 261.256H694.975V313.578H685.033V261.256Z" fill="white"/>
<path d="M783.464 261.278L760.864 308.707C759.365 311.951 756.778 313.575 753.103 313.578C749.428 313.581 746.817 311.957 745.27 308.707L722.67 261.278H733.669L751.826 299.356C751.937 299.597 752.116 299.802 752.343 299.946C752.57 300.089 752.835 300.166 753.105 300.166C753.375 300.166 753.64 300.089 753.867 299.946C754.094 299.802 754.273 299.597 754.384 299.356L772.542 261.278H783.464Z" fill="white"/>
<path d="M376.254 384.711V386.82H367.84V394.062H365.262V386.82H356.941V384.711H376.254ZM357.949 381.242C362.109 380.715 364.898 378.477 365.086 376.156H358.723V374.094H374.473V376.156H368.109C368.285 378.477 371.051 380.715 375.246 381.242L374.309 383.281C370.699 382.766 367.887 381.113 366.598 378.828C365.297 381.113 362.508 382.766 358.934 383.281L357.949 381.242ZM385.582 375.922C385.57 378.711 387.328 381.336 390.691 382.391L389.402 384.453C386.965 383.645 385.219 382.027 384.258 379.953C383.309 382.18 381.527 383.949 379.02 384.805L377.707 382.766C381.129 381.605 382.898 378.793 382.887 375.922V373.906H385.582V375.922ZM380.871 388.625V386.539H395.332V394.086H392.707V388.625H380.871ZM392.707 385.578V372.898H395.332V385.578H392.707ZM416.074 372.898V394.086H413.473V372.898H416.074ZM398.52 388.203C400.207 388.191 402.117 388.191 404.121 388.133V386.188C401.742 385.812 400.184 384.359 400.184 382.344C400.184 379.953 402.305 378.371 405.387 378.359C408.504 378.371 410.66 379.953 410.66 382.344C410.66 384.348 409.102 385.789 406.723 386.176V388.039C408.586 387.957 410.461 387.805 412.23 387.57L412.418 389.516C407.766 390.301 402.703 390.359 398.895 390.359L398.52 388.203ZM398.965 377.398V375.336H404.121V372.969H406.723V375.336H411.855V377.398H398.965ZM402.668 382.344C402.645 383.562 403.781 384.277 405.387 384.266C407.039 384.277 408.164 383.562 408.152 382.344C408.164 381.113 407.039 380.363 405.387 380.352C403.781 380.363 402.645 381.113 402.668 382.344ZM426.738 377.984C426.715 381.77 428.613 385.59 431.895 387.172L430.301 389.258C428.004 388.098 426.352 385.859 425.449 383.164C424.523 386.047 422.789 388.438 420.363 389.656L418.77 387.57C422.18 385.953 424.125 381.898 424.137 377.984V374.609H426.738V377.984ZM433.16 394.086V372.898H435.762V381.195H439.02V383.422H435.762V394.086H433.16ZM452.52 373.836C455.742 373.824 458.074 375.629 458.074 378.289C458.074 380.902 455.742 382.73 452.52 382.719C449.332 382.73 447.012 380.902 447.012 378.289C447.012 375.629 449.332 373.824 452.52 373.836ZM445.629 384.172C449.449 384.172 454.805 384.102 459.363 383.422L459.551 385.344C457.723 385.695 455.824 385.918 453.973 386.059V393.43H451.348V386.211C449.391 386.293 447.551 386.316 445.957 386.328L445.629 384.172ZM449.543 378.289C449.531 379.707 450.785 380.598 452.52 380.586C454.324 380.598 455.59 379.707 455.59 378.289C455.59 376.824 454.324 375.922 452.52 375.945C450.785 375.922 449.531 376.824 449.543 378.289ZM460.746 394.062V372.922H463.324V394.062H460.746ZM484.02 372.898V394.086H481.441V372.898H484.02ZM467.566 388.766V374.961H470.145V386.539C473.109 386.492 476.273 386.234 479.543 385.578L479.871 387.758C476.145 388.531 472.688 388.777 469.395 388.766H467.566ZM506.449 389.281V391.438H487.09V389.281H506.449ZM489.223 385.508V374.328H491.824V377.961H501.645V374.328H504.246V385.508H489.223ZM491.824 383.469H501.645V380H491.824V383.469ZM514.699 374.375C518.062 374.363 520.512 376.484 520.535 379.484C520.512 382.496 518.062 384.605 514.699 384.617C511.371 384.605 508.875 382.496 508.887 379.484C508.875 376.484 511.371 374.363 514.699 374.375ZM507.926 387.547C511.746 387.547 517.031 387.5 521.613 386.844L521.824 388.742C517.078 389.645 511.992 389.68 508.254 389.68L507.926 387.547ZM511.465 379.484C511.453 381.254 512.848 382.344 514.699 382.344C516.574 382.344 517.969 381.254 517.98 379.484C517.969 377.727 516.586 376.625 514.699 376.625C512.848 376.625 511.453 377.727 511.465 379.484ZM522.879 394.109V372.898H525.48V394.109H522.879ZM550.863 372.898V380.938H554.121V383.07H550.863V394.109H548.262V372.898H550.863ZM535.137 388.93V374.914H545.051V377.023H537.738V386.75C541.031 386.738 543.645 386.574 546.551 386.07L546.855 388.273C543.562 388.836 540.715 388.93 536.895 388.93H535.137ZM574.605 375.734V377.867H571.723V380.281H574.605V382.438H571.723V385.344H569.121V372.898H571.723V375.734H574.605ZM555.246 379.18C555.234 376.191 557.695 374.094 560.965 374.117C564.223 374.094 566.66 376.191 566.684 379.18C566.66 382.156 564.223 384.254 560.965 384.266C557.695 384.254 555.234 382.156 555.246 379.18ZM557.66 389.961C557.66 387.371 560.449 385.848 564.832 385.836C569.18 385.848 571.922 387.371 571.934 389.961C571.922 392.527 569.18 394.062 564.832 394.062C560.449 394.062 557.66 392.527 557.66 389.961ZM557.801 379.18C557.789 380.938 559.137 382.051 560.965 382.062C562.77 382.051 564.117 380.938 564.129 379.18C564.117 377.434 562.77 376.285 560.965 376.297C559.137 376.285 557.789 377.434 557.801 379.18ZM560.262 389.961C560.262 391.297 561.926 391.977 564.832 391.977C567.727 391.977 569.355 391.297 569.355 389.961C569.355 388.637 567.727 387.922 564.832 387.922C561.926 387.922 560.262 388.637 560.262 389.961ZM592.465 372.922V379.578H595.418V381.734H592.465V388.742H589.863V372.922H592.465ZM575.777 377.352V375.266H580.77V372.898H583.371V375.266H588.34V377.352H575.777ZM576.855 382.273C576.855 379.836 578.977 378.219 582.059 378.219C585.117 378.219 587.227 379.836 587.238 382.273C587.227 384.699 585.117 386.281 582.059 386.281C578.977 386.281 576.855 384.699 576.855 382.273ZM578.895 393.664V387.5H581.496V391.555H593.309V393.664H578.895ZM579.387 382.273C579.375 383.551 580.453 384.277 582.059 384.266C583.664 384.277 584.754 383.551 584.754 382.273C584.754 380.984 583.664 380.234 582.059 380.234C580.453 380.234 579.375 380.984 579.387 382.273ZM606.105 375.031V392H603.059V375.031H606.105ZM620.707 380.75C620.344 378.711 618.715 377.539 616.652 377.539C613.875 377.539 611.906 379.672 611.918 383.516C611.906 387.418 613.887 389.492 616.652 389.492C618.668 389.492 620.297 388.367 620.707 386.375H623.777C623.309 389.633 620.625 392.234 616.605 392.234C612.129 392.234 608.836 388.988 608.848 383.516C608.836 378.031 612.164 374.797 616.605 374.797C620.355 374.797 623.25 376.977 623.777 380.75H620.707ZM625.652 377.586V375.031H639.176V377.586H633.949V392H630.902V377.586H625.652ZM663.434 373.789V375.711C663.422 377.762 663.422 379.871 662.824 382.719L660.246 382.508C660.469 381.477 660.609 380.539 660.691 379.66L648.41 380.188L648.082 378.031L660.809 377.727C660.832 377.094 660.832 376.484 660.832 375.875H648.645V373.789H663.434ZM646.441 385.977V383.891H653.848V381.102H656.449V383.891H665.66V385.977H646.441ZM648.738 393.758V387.453H651.34V391.648H663.832V393.758H648.738ZM685.254 372.922V388.742H682.77V372.922H685.254ZM668.027 385.602V374.562H676.09V376.672H670.535V379.039H675.293V381.031H670.535V383.469C673.066 383.469 674.824 383.387 676.887 383L677.168 385.062C674.719 385.508 672.703 385.59 669.434 385.602H668.027ZM671.191 393.664V387.008H673.816V391.555H685.84V393.664H671.191ZM676.207 380.844V378.758H678.598V373.32H681.082V388.227H678.598V380.844H676.207ZM707.238 389.398V391.531H687.879V389.398H707.238ZM688.723 384.266C693.27 383.586 696.035 380.973 696.211 378.125H689.59V376.016H696.246V373.297H698.824V376.016H705.504V378.125H698.883C699.047 380.973 701.801 383.586 706.371 384.266L705.363 386.352C701.719 385.754 698.93 383.996 697.535 381.57C696.141 383.996 693.34 385.754 689.707 386.352L688.723 384.266ZM727.957 382.508V384.477H708.598V382.508H727.957ZM710.848 387.57V385.742H725.613V390.57H713.473V392.047H726.246V393.852H710.871V388.883H723.035V387.57H710.848ZM710.988 375.172V373.367H725.566V378.148H713.637V379.531H725.941V381.312H711.059V376.461H722.965V375.172H710.988ZM754.418 389.375V391.508H735.059V389.375H743.402V384.758H737.191V374.539H752.191V384.758H745.98V389.375H754.418ZM739.746 382.719H749.613V376.625H739.746V382.719ZM761.496 374.445C764.684 374.445 766.98 377.352 767.004 381.922C766.98 386.527 764.684 389.422 761.496 389.422C758.273 389.422 755.977 386.527 755.988 381.922C755.977 377.352 758.273 374.445 761.496 374.445ZM758.496 381.922C758.484 385.18 759.715 387.066 761.496 387.078C763.289 387.066 764.484 385.18 764.496 381.922C764.484 378.688 763.289 376.789 761.496 376.789C759.715 376.789 758.484 378.688 758.496 381.922ZM769.793 394.086V372.898H772.395V381.031H775.652V383.234H772.395V394.086H769.793ZM801.598 389.398V391.531H782.238V389.398H790.582V385.273H784.371V374.305H786.973V377.773H796.793V374.305H799.395V385.273H793.16V389.398H801.598ZM786.973 383.164H796.793V379.859H786.973V383.164ZM809.59 378.453C809.602 381.875 810.773 385.438 813.645 387.242L812.215 389.234C810.305 388.086 809.062 386.117 808.359 383.809C807.598 386.352 806.238 388.508 804.246 389.727L802.629 387.781C805.711 385.918 807.07 382.18 807.082 378.57V374.773H809.59V378.453ZM811.371 382.344V380.188H814.395V373.273H816.855V393.055H814.395V382.344H811.371ZM818.754 394.086V372.898H821.262V394.086H818.754ZM843.082 389.375V391.508H823.723V389.375H828.199V384.02C826.512 383.047 825.492 381.523 825.504 379.648C825.492 376.273 828.797 374.047 833.355 374.047C837.938 374.047 841.266 376.273 841.254 379.648C841.266 381.5 840.27 382.988 838.629 383.961V389.375H843.082ZM828.059 379.648C828.047 381.816 830.191 383.199 833.355 383.188C836.508 383.199 838.699 381.816 838.699 379.648C838.699 377.445 836.508 376.098 833.355 376.109C830.191 376.098 828.047 377.445 828.059 379.648ZM830.777 389.375H835.98V384.957C835.172 385.133 834.293 385.227 833.355 385.227C832.441 385.227 831.574 385.133 830.777 384.969V389.375Z" fill="#DEE8FF"/>
<defs>
<linearGradient id="paint0_linear_184_1730" x1="0" y1="0" x2="1200" y2="630" gradientUnits="userSpaceOnUse">
<stop stop-color="#2E6FF2"/>
<stop offset="1" stop-color="#3075FF"/>
</linearGradient>
</defs>
</svg>
