<svg width="245" height="34" viewBox="0 0 245 34" fill="none" xmlns="http://www.w3.org/2000/svg">
<path d="M168.87 11.76C166.3 11.76 164.5 13.05 163.51 14.31V12.09H161.7V26.33H163.51V18.92C163.51 16.3 165.81 13.49 168.82 13.49C169.61 13.49 170.17 13.58 170.56 13.75L171.11 13.98V12.11L170.84 12.02C170.37 11.86 169.77 11.76 168.86 11.76H168.87Z" fill="#47494D"/>
<path d="M232.9 11.76C228.88 11.76 225.97 15.02 225.97 19.22C225.97 23.42 228.88 26.68 232.9 26.68C235.97 26.68 238.4 25.01 239.2 22.69L239.39 22.16H237.45L237.35 22.42C236.82 23.81 235.18 24.95 232.9 24.95C230.17 24.95 228.2 22.93 227.86 20.09H239.76C239.76 20.09 239.82 19.63 239.82 19.23C239.82 15.03 236.91 11.77 232.89 11.77L232.9 11.76ZM232.9 13.5C235.63 13.5 237.6 15.5 237.94 18.34H227.86C228.2 15.5 230.16 13.5 232.9 13.5Z" fill="#47494D"/>
<path d="M223.01 12.1L217.68 23.91L212.35 12.1H210.36L216.85 26.34H218.49L224.97 12.1H223.01Z" fill="#47494D"/>
<path d="M155.56 12.1V14.24C154.53 12.95 152.67 11.77 150.18 11.77C146.16 11.77 143.25 15.05 143.25 19.23C143.25 23.41 146.16 26.69 150.18 26.69C152.67 26.69 154.53 25.51 155.56 24.22V26.36H157.37V12.1H155.56ZM155.58 19.22C155.58 22.49 153.35 24.94 150.24 24.94C147.13 24.94 145.05 22.5 145.05 19.22C145.05 15.94 147.14 13.5 150.24 13.5C153.34 13.5 155.58 15.95 155.58 19.22Z" fill="#47494D"/>
<path d="M183.9 21.22L183.81 21.5C183.19 23.52 181.42 24.94 179.15 24.94C176.07 24.94 173.91 22.52 173.91 19.22C173.91 15.92 176.07 13.5 179.15 13.5C181.39 13.5 183.12 14.87 183.79 16.9L183.88 17.17H185.73L185.58 16.66C184.74 13.76 182.24 11.76 179.15 11.76C175.09 11.76 172.1 15.01 172.1 19.22C172.1 23.43 175.12 26.68 179.22 26.68C182.31 26.68 184.82 24.66 185.61 21.73L185.75 21.23H183.9V21.22Z" fill="#47494D"/>
<path d="M206.72 6.12C206.02 6.12 205.48 6.66 205.48 7.36C205.48 8.06 206.02 8.6 206.72 8.6C207.42 8.6 207.96 8.06 207.96 7.36C207.96 6.66 207.42 6.12 206.72 6.12Z" fill="#47494D"/>
<path d="M207.63 12.1H205.82V26.34H207.63V12.1Z" fill="#47494D"/>
<path d="M196.16 11.76C193.67 11.76 191.94 13.03 190.99 14.28V6H189.18V26.34H190.99V18.93C190.99 17.63 191.54 16.27 192.44 15.22C193.34 14.18 194.58 13.49 195.94 13.49C197.3 13.49 198.24 13.9 198.94 14.66C199.64 15.42 200.06 16.58 200.06 18.15V26.33H201.87V17.99C201.87 16.14 201.29 14.58 200.27 13.48C199.25 12.38 197.82 11.76 196.16 11.76Z" fill="#47494D"/>
<path d="M46.19 13.14C45.19 13.14 44.38 13.95 44.38 14.95C44.38 19.38 40.77 22.99 36.34 22.99C31.91 22.99 28.3 19.38 28.3 14.95C28.3 13.95 27.49 13.14 26.49 13.14C25.49 13.14 24.68 13.95 24.68 14.95C24.68 19.38 21.07 22.99 16.64 22.99C12.21 22.99 8.62 19.38 8.62 14.95C8.62 13.95 7.81 13.14 6.81 13.14C5.81 13.14 5 13.95 5 14.95C5 21.38 10.23 26.61 16.66 26.61C20.8 26.61 24.44 24.44 26.51 21.18C28.58 24.44 32.22 26.61 36.36 26.61C42.79 26.61 48.02 21.38 48.02 14.95C48.02 13.95 47.21 13.14 46.21 13.14H46.19Z" fill="#2E6FF2"/>
<path d="M92.1 26.6C91.1 26.6 90.29 25.79 90.29 24.79C90.29 20.36 86.68 16.75 82.25 16.75C77.82 16.75 74.21 20.36 74.21 24.79C74.21 25.79 73.4 26.6 72.4 26.6C71.4 26.6 70.59 25.79 70.59 24.79C70.59 18.36 75.82 13.13 82.25 13.13C88.68 13.13 93.91 18.36 93.91 24.79C93.91 25.79 93.1 26.6 92.1 26.6Z" fill="#2E6FF2"/>
<path d="M119.51 26.6C119.05 26.6 118.58 26.42 118.23 26.07L108.38 16.22C107.67 15.51 107.67 14.37 108.38 13.66C109.09 12.95 110.23 12.95 110.94 13.66L119.51 22.23L128.08 13.66C128.79 12.95 129.93 12.95 130.64 13.66C131.35 14.37 131.35 15.51 130.64 16.22L120.79 26.07C120.44 26.42 119.97 26.6 119.51 26.6Z" fill="#2E6FF2"/>
<path d="M101.05 26.6C100.05 26.6 99.24 25.79 99.24 24.79V14.66C99.24 13.66 100.05 12.85 101.05 12.85C102.05 12.85 102.86 13.66 102.86 14.66V24.8C102.86 25.8 102.05 26.61 101.05 26.61V26.6Z" fill="#2E6FF2"/>
<path d="M101.05 10.88C102.398 10.88 103.49 9.78757 103.49 8.44C103.49 7.09243 102.398 6 101.05 6C99.7024 6 98.61 7.09243 98.61 8.44C98.61 9.78757 99.7024 10.88 101.05 10.88Z" fill="#2E6FF2"/>
<path d="M133.61 26.6C134.957 26.6 136.05 25.5076 136.05 24.16C136.05 22.8124 134.957 21.72 133.61 21.72C132.262 21.72 131.17 22.8124 131.17 24.16C131.17 25.5076 132.262 26.6 133.61 26.6Z" fill="#2E6FF2"/>
<path d="M59.4544 26.96C58.49 26.96 57.5256 26.7733 56.605 26.4C54.7296 25.64 53.262 24.1944 52.4729 22.3297C51.6839 20.465 51.6686 18.408 52.431 16.5319C53.1896 14.6577 54.6362 13.1911 56.5002 12.4025C58.3642 11.614 60.4245 11.5988 62.3018 12.3606C64.1773 13.1206 65.6448 14.5663 66.4339 16.4309C66.8036 17.3033 66.3938 18.3089 65.5228 18.6765L56.6393 22.4307C57.0014 22.764 57.4245 23.0325 57.8934 23.223C58.9207 23.6401 60.049 23.6306 61.0687 23.2002C62.0121 22.8021 62.7726 22.0726 63.2071 21.1469C63.6093 20.2898 64.6309 19.9222 65.4885 20.3241C66.3462 20.726 66.714 21.7469 66.3119 22.604C65.5171 24.2953 64.1277 25.6286 62.4047 26.3581C61.4556 26.76 60.455 26.96 59.4544 26.96ZM57.8362 15.5605C56.8166 15.9929 56.0237 16.7947 55.6063 17.8213C55.4157 18.2899 55.3147 18.7813 55.3013 19.2727L62.2656 16.33C61.9035 15.9967 61.4785 15.7357 61.0115 15.5376C60.4435 15.2976 59.218 14.9739 57.8362 15.5605Z" fill="#2E6FF2"/>
</svg>
