<svg width="245" height="34" viewBox="0 0 245 34" fill="none" xmlns="http://www.w3.org/2000/svg">
<path d="M91.9051 26.9292C90.9151 26.9292 90.1134 26.136 90.1134 25.1563C90.1134 20.8138 86.5414 17.2793 82.1525 17.2793C77.7639 17.2793 74.1917 20.8138 74.1917 25.1563C74.1917 26.136 73.3902 26.9292 72.4001 26.9292C71.4099 26.9292 70.6084 26.136 70.6084 25.1563C70.6084 18.8581 75.7872 13.7336 82.1525 13.7336C88.5178 13.7336 93.6969 18.8581 93.6969 25.1563C93.6969 26.136 92.8952 26.9292 91.9051 26.9292Z" fill="#2E6FF2"/>
<path d="M119.46 26.9292C118.996 26.9292 118.532 26.7558 118.177 26.4105L108.306 16.7609C107.598 16.0686 107.598 14.9452 108.306 14.2529C109.014 13.5605 110.162 13.5605 110.872 14.2529L119.46 22.6484L128.048 14.2529C128.756 13.5605 129.904 13.5605 130.614 14.2529C131.322 14.9452 131.322 16.0686 130.614 16.7609L120.743 26.4105C120.388 26.7558 119.924 26.9292 119.46 26.9292Z" fill="#2E6FF2"/>
<path d="M100.877 26.9292C99.8653 26.9292 99.0466 26.1362 99.0466 25.1567V15.2253C99.0466 14.2458 99.8653 13.4528 100.877 13.4528C101.888 13.4528 102.707 14.2458 102.707 15.2253V25.1567C102.707 26.1362 101.888 26.9292 100.877 26.9292Z" fill="#2E6FF2"/>
<path d="M101.019 10.8239C102.351 10.8239 103.431 9.74406 103.431 8.41196C103.431 7.07987 102.351 6 101.019 6C99.687 6 98.6072 7.07987 98.6072 8.41196C98.6072 9.74406 99.687 10.8239 101.019 10.8239Z" fill="#2E6FF2"/>
<path d="M133.638 26.9037C134.97 26.9037 136.05 25.8238 136.05 24.4917C136.05 23.1596 134.97 22.0798 133.638 22.0798C132.306 22.0798 131.226 23.1596 131.226 24.4917C131.226 25.8238 132.306 26.9037 133.638 26.9037Z" fill="#2E6FF2"/>
<path d="M59.2982 27.4918C58.3377 27.4918 57.3771 27.305 56.4601 26.9317C54.5921 26.1718 53.1304 24.726 52.3444 22.8612C51.5585 20.9964 51.5434 18.9392 52.3028 17.063C53.0583 15.1887 54.499 13.722 56.3558 12.9334C58.2123 12.1448 60.2646 12.1296 62.1344 12.8915C64.0024 13.6515 65.4641 15.0973 66.2501 16.9621C66.6184 17.8345 66.2102 18.8402 65.3425 19.2078L56.4943 22.9622C56.855 23.2954 57.2765 23.5642 57.7435 23.7546C58.7666 24.1717 59.8906 24.1621 60.9061 23.7316C61.8459 23.3335 62.6032 22.6041 63.036 21.6783C63.4366 20.8212 64.4542 20.4536 65.3085 20.8555C66.1628 21.2574 66.5292 22.2783 66.1286 23.1355C65.337 24.8269 63.953 26.1603 62.2369 26.8899C61.2916 27.2917 60.2949 27.4918 59.2982 27.4918ZM57.6865 16.0916C56.671 16.524 55.8812 17.3259 55.4654 18.3526C55.2755 18.8211 55.1749 19.3126 55.1615 19.804L62.0983 16.8611C61.7377 16.5278 61.3143 16.2668 60.8492 16.0687C60.2834 15.8287 59.0627 15.5049 57.6865 16.0916Z" fill="#2E6FF2"/>
<path d="M46.2675 13.7081C45.266 13.7081 44.4554 14.5012 44.4554 15.4809C44.4554 19.8235 40.8425 23.3579 36.4038 23.3579C31.9648 23.3579 28.3519 19.8235 28.3519 15.4809C28.3519 14.5012 27.5413 13.7081 26.5397 13.7081C25.5384 13.7081 24.7276 14.5012 24.7276 15.4809C24.7276 19.8235 21.1148 23.3579 16.676 23.3579C12.2372 23.3579 8.62431 19.8235 8.62431 15.4809C8.62431 14.5012 7.81361 13.7081 6.81214 13.7081C5.8107 13.7081 5 14.5012 5 15.4809C5 21.7792 10.2381 26.9037 16.676 26.9037C20.823 26.9037 24.4682 24.7763 26.5397 21.5814C28.6115 24.7763 32.2586 26.9037 36.4038 26.9037C42.8416 26.9037 48.0797 21.7792 48.0797 15.4809C48.0797 14.5012 47.2689 13.7081 46.2675 13.7081Z" fill="#2E6FF2"/>
<path d="M155.661 14.4474C154.576 13.1031 152.641 11.985 150.277 11.985C146.327 11.985 143.348 15.1905 143.348 19.4415C143.348 23.6925 146.327 26.898 150.277 26.898C152.641 26.898 154.576 25.7799 155.661 24.4356V26.5621H157.47V12.3214H155.661V14.4474ZM150.349 25.1622C147.292 25.1622 145.157 22.8097 145.157 19.4415C145.157 16.0733 147.292 13.7208 150.349 13.7208C153.441 13.7208 155.685 16.1266 155.685 19.4415C155.685 22.7564 153.441 25.1622 150.349 25.1622Z" fill="#47494D"/>
<path d="M168.925 11.985C166.313 11.985 164.53 13.3121 163.565 14.5465V12.3214H161.756V26.5621H163.565V19.1534C163.565 16.589 165.836 13.7208 168.877 13.7208C169.628 13.7208 170.213 13.8072 170.619 13.9776L171.174 14.211V12.3419L170.907 12.2477C170.399 12.0685 169.769 11.985 168.925 11.985Z" fill="#47494D"/>
<path d="M183.832 21.7242C183.189 23.8126 181.361 25.1622 179.173 25.1622C176.136 25.1622 173.933 22.7564 173.933 19.4415C173.933 16.1266 176.136 13.7208 179.173 13.7208C181.342 13.7208 183.119 15.023 183.81 17.1187L183.901 17.3932H185.754L185.606 16.8819C184.746 13.9073 182.22 11.985 179.173 11.985C175.155 11.985 172.125 15.1905 172.125 19.4415C172.125 23.6925 175.186 26.898 179.246 26.898C182.267 26.898 184.833 24.9078 185.631 21.9459L185.768 21.442H183.917L183.832 21.7242Z" fill="#47494D"/>
<path d="M196.118 11.985C193.606 11.985 191.888 13.2872 190.949 14.5123V6.2247H189.14V26.5621H190.949V19.1534C190.949 16.589 193.066 13.7208 195.901 13.7208C198.514 13.7208 200.013 15.421 200.013 18.3853V26.5621H201.822V18.2174C201.822 14.5479 199.476 11.985 196.118 11.985Z" fill="#47494D"/>
<path d="M206.627 6.34482C205.932 6.34482 205.387 6.88925 205.387 7.58456C205.387 8.27988 205.932 8.8248 206.627 8.8248C207.323 8.8248 207.869 8.27988 207.869 7.58456C207.869 6.88925 207.323 6.34482 206.627 6.34482Z" fill="#47494D"/>
<path d="M207.532 12.3214H205.723V26.5621H207.532V12.3214Z" fill="#47494D"/>
<path d="M217.549 24.1339L212.214 12.3214H210.23L216.715 26.5621H218.359L224.843 12.3214H222.883L217.549 24.1339Z" fill="#47494D"/>
<path d="M232.716 11.985C228.766 11.985 225.788 15.1905 225.788 19.4415C225.788 23.6925 228.766 26.898 232.716 26.898C235.704 26.898 238.179 25.3326 239.023 22.9093L239.208 22.378H237.264L237.167 22.6363C236.594 24.1471 234.806 25.1622 232.716 25.1622C230.029 25.1622 227.998 23.1827 227.657 20.2975H239.55L239.614 19.9742C239.641 19.8336 239.645 19.61 239.645 19.4415C239.645 15.1905 236.667 11.985 232.716 11.985ZM232.716 13.7208C235.404 13.7208 237.435 15.69 237.776 18.5616H227.657C227.998 15.69 230.029 13.7208 232.716 13.7208Z" fill="#47494D"/>
</svg>
