<svg width="100" height="29" viewBox="0 0 100 29" fill="none" xmlns="http://www.w3.org/2000/svg">
<path d="M24.2963 10.2313V18.0416C24.2896 19.4074 23.7363 20.7155 22.7566 21.6814C21.7768 22.6474 20.45 23.1931 19.0643 23.2C17.4318 23.2 16.0957 22.5839 15.0561 21.3517C14.0047 22.5846 12.6624 23.2007 11.0291 23.2C9.64347 23.1931 8.31658 22.6474 7.33687 21.6814C6.35716 20.7155 5.80381 19.4074 5.79712 18.0416V10.2313H8.24588V18.0416C8.24735 18.7687 8.54105 19.4657 9.06269 19.9799C9.58433 20.4941 10.2914 20.7836 11.0291 20.7851C11.3938 20.7911 11.7559 20.7247 12.0939 20.5896C12.4318 20.4545 12.7387 20.2537 12.9961 19.999C13.2597 19.7472 13.4693 19.4459 13.6128 19.1129C13.7562 18.7799 13.8305 18.4219 13.8312 18.0601V10.2313H16.2811V18.0601C16.2755 18.4211 16.3451 18.7794 16.4854 19.1129C16.6258 19.4464 16.8341 19.748 17.0973 19.999C17.3547 20.2537 17.6616 20.4545 17.9996 20.5896C18.3375 20.7247 18.6997 20.7911 19.0643 20.7851C19.8022 20.7842 20.5096 20.4949 21.0314 19.9806C21.5531 19.4662 21.8467 18.7689 21.8475 18.0416V10.2313H24.2963Z" fill="#121314"/>
<path d="M33.511 17.9258C33.7737 18.7417 34.2859 19.4574 34.9774 19.975C35.6872 20.5046 36.5549 20.7876 37.445 20.7796C38.2025 20.7733 38.9496 20.605 39.6346 20.2862C40.4025 19.9441 40.9655 19.511 41.3236 18.987L43.346 20.3407C42.7612 21.1945 41.915 21.8834 40.8075 22.4074C39.7632 22.9186 38.6143 23.1879 37.4483 23.1945C36.5813 23.2079 35.7208 23.0459 34.9198 22.7186C34.1188 22.3913 33.3943 21.9057 32.7911 21.2916C31.5042 20.0245 30.8611 18.5005 30.8618 16.7195C30.8633 14.999 31.5574 13.3494 32.7917 12.1329C34.026 10.9164 35.6996 10.2325 37.445 10.2313C39.2518 10.2313 40.7983 10.8653 42.0845 12.1331C42.7074 12.727 43.2004 13.4403 43.5331 14.229C43.8659 15.0178 44.0314 15.8653 44.0193 16.7195C44.0198 17.1183 43.9827 17.5163 43.9086 17.9084L33.511 17.9258ZM37.445 12.6408C36.5548 12.6324 35.6869 12.9153 34.9774 13.4454C34.2823 13.967 33.7697 14.6895 33.511 15.512H41.3613C41.103 14.6896 40.5908 13.9671 39.896 13.4454C39.192 12.9169 38.3299 12.6339 37.445 12.6408Z" fill="#121314"/>
<path d="M50.4086 23.1945V16.7195C50.3949 15.8648 50.5591 15.0164 50.8909 14.2266C51.2227 13.4369 51.7152 12.7225 52.338 12.1277C53.6249 10.8634 55.1714 10.2313 56.9774 10.2313C58.7246 10.2313 60.4002 10.9155 61.6356 12.1333C62.871 13.351 63.565 15.0027 63.565 16.7249V23.2H61.1152V16.7195C61.1152 15.6401 60.6802 14.6048 59.9058 13.8416C59.1315 13.0783 58.0813 12.6495 56.9863 12.6495C55.8912 12.6495 54.841 13.0783 54.0667 13.8416C53.2924 14.6048 52.8574 15.6401 52.8574 16.7195V23.1945H50.4086Z" fill="#121314"/>
<path d="M69.959 5.79999H72.4077V8.14066H69.959V5.79999ZM69.959 10.2259H72.4077V23.1945H69.959V10.2259Z" fill="#121314"/>
<path d="M94.2029 10.2313L88.6364 21.9871C88.2672 22.7913 87.63 23.1938 86.7248 23.1945C85.8196 23.1953 85.1765 22.7928 84.7955 21.9871L79.229 10.2313H81.938L86.4103 19.6693C86.4376 19.7292 86.4819 19.7799 86.5378 19.8156C86.5937 19.8512 86.6588 19.8701 86.7254 19.8701C86.7919 19.8701 86.8571 19.8512 86.913 19.8156C86.9689 19.7799 87.0131 19.7292 87.0405 19.6693L91.5127 10.2313H94.2029Z" fill="#121314"/>
</svg>
